inDegrees=no
num_controls=7
num_derivatives=13
num_iterations=113
num_multipliers=7
num_parameters=0
num_slacks=7
num_states=26
objective=0.444738
objective_accelerations=0.058867
objective_balance=0.003636
objective_effort=0.023701
objective_height=0.353046
objective_ligament=0.005487
solver_duration=1673.844489
status=Solve_Succeeded
success=true
DataType=double
version=3
OpenSimVersion=4.5
endheader
time	/jointset/ground_pelvis/pelvis_tilt/value	/jointset/ground_pelvis/pelvis_tx/value	/jointset/ground_pelvis/pelvis_ty/value	/jointset/hip_l/hip_flexion_l/value	/jointset/hip_l/hip_adduction_l/value	/jointset/hip_l/hip_rotation_l/value	/jointset/back/lumbar_extension/value	/jointset/patellofemoral_l/patellar_flexion_l/value	/jointset/knee_l/knee_flexion_l/value	/jointset/knee_l/knee_adduction_l/value	/jointset/knee_l/knee_rotation_l/value	/jointset/ankle_l/ankle_angle_l/value	/jointset/subtalar_l/subtalar_angle_l/value	/jointset/ground_pelvis/pelvis_tilt/speed	/jointset/ground_pelvis/pelvis_tx/speed	/jointset/ground_pelvis/pelvis_ty/speed	/jointset/hip_l/hip_flexion_l/speed	/jointset/hip_l/hip_adduction_l/speed	/jointset/hip_l/hip_rotation_l/speed	/jointset/back/lumbar_extension/speed	/jointset/patellofemoral_l/patellar_flexion_l/speed	/jointset/knee_l/knee_flexion_l/speed	/jointset/knee_l/knee_adduction_l/speed	/jointset/knee_l/knee_rotation_l/speed	/jointset/ankle_l/ankle_angle_l/speed	/jointset/subtalar_l/subtalar_angle_l/speed	/forceset/tau_hip_flexion_l	/forceset/tau_hip_adduction_l	/forceset/tau_hip_rotation_l	/forceset/tau_knee_flexion_l	/forceset/tau_ankle_angle_l	/forceset/tau_subtalar_angle_l	/forceset/tau_lumbar_extension	lambda_cid13_p0	lambda_cid13_p1	lambda_cid13_p2	lambda_cid13_p3	lambda_cid13_p4	lambda_cid13_p5	lambda_cid14_p0	/jointset/ground_pelvis/pelvis_tilt/accel	/jointset/ground_pelvis/pelvis_tx/accel	/jointset/ground_pelvis/pelvis_ty/accel	/jointset/hip_l/hip_flexion_l/accel	/jointset/hip_l/hip_adduction_l/accel	/jointset/hip_l/hip_rotation_l/accel	/jointset/back/lumbar_extension/accel	/jointset/patellofemoral_l/patellar_flexion_l/accel	/jointset/knee_l/knee_flexion_l/accel	/jointset/knee_l/knee_adduction_l/accel	/jointset/knee_l/knee_rotation_l/accel	/jointset/ankle_l/ankle_angle_l/accel	/jointset/subtalar_l/subtalar_angle_l/accel	gamma_cid13_p0	gamma_cid13_p1	gamma_cid13_p2	gamma_cid13_p3	gamma_cid13_p4	gamma_cid13_p5	gamma_cid14_p0
0	-0.03888765048504178	0.06863177184759091	0.8959251937526148	0.1955287580552426	-0.3222739338454683	-0.4780404491699871	-0.1379045077516729	0.07015288079084538	0.07015288079084844	-0.1745318586082955	-0.1127742816283951	-0.06701059314715049	0.003471557105262214	0	0	0	0	0	0	0	0	0	0	0	0	0	0.1066202843850834	-0.100810499802015	-0.02882539863447828	-0.231178550841686	0.184325003033739	-0.01155476896811436	-0.05211872359614123	23.66139272323457	-1.944591009281277	3.195094884229317	2.177420948402665	-514.725021399916	-83.31441676777585	-39.781838855418	-4.62305549232844	-1.949876769518234	-1.000492042052012	12.96160125398589	-2.104115832414317	3.394804386976174	-2.878133797709304	10.36816286016833	10.3681628601678	0.7226270463157015	-0.8588207491005659	2.257021312511717	-1.082042631325287	-2.533822500700701e-08	1.35750943287733e-07	1.192481968534925e-07	1.378595272984662e-08	-1.13728179170507e-08	-3.369376669543445e-08	-4.185634532862869e-09
0.01	-0.03910827765979779	0.06853578673688528	0.8958766248631608	0.1961555903544183	-0.322377554638015	-0.4778701212004073	-0.1380542756306327	0.07065665963109728	0.07065665963108493	-0.1744992832145304	-0.1128111010330517	-0.06690219509456716	0.003416730837388719	-0.04391337453293578	-0.0190889427066357	-0.009681529335471381	0.1247769750669824	-0.02062392894829567	0.03390990815424554	-0.02967387818885424	0.1003185438719927	0.100318543871995	0.006492884388496293	-0.007333605447544087	0.0216169731936637	-0.01089019410835324	0.1024196620883135	-0.09975342745065471	-0.02811580851584756	-0.2266134741869018	0.1785741245026851	-0.009125627234474376	-0.04844472657837869	21.8830886348655	-2.704267701987777	3.334561848472916	2.484629026718373	-515.6039245722839	-84.66901310893057	-39.79207365909609	-4.243681207452746	-1.872188348668549	-0.9471483705682719	12.1473107406176	-2.026530314252261	3.365718825332281	-2.970060189151146	9.798117361257388	9.798117361257891	0.6093264925736941	-0.6660786330376828	2.10464204675334	-1.081284062816634	-6.529277819382482e-08	1.608350725694443e-07	2.002892388943215e-07	4.906720330922126e-08	-2.422139205924119e-07	-8.633285427243494e-08	-1.081263052979182e-08
0.02	-0.03976167913461572	0.06825215513362705	0.8957322076820973	0.1980125054257822	-0.322684414497689	-0.4773653671901523	-0.138492391363416	0.07215050735216356	0.07215050735216436	-0.1744024375053754	-0.1129203461303049	-0.06657950596525528	0.003255247375986426	-0.08655486001295321	-0.03752929851051949	-0.01916965832187913	0.2460165544364893	-0.04064781342519641	0.06688520813583229	-0.05766957076482716	0.1980137761656916	0.1980137761656921	0.01285406307527728	-0.01448513851333911	0.04285821534571454	-0.02133143870575801	0.09821903979160247	-0.09869635509928876	-0.02740621839703169	-0.2220483975321025	0.1728232459716485	-0.006696485500821034	-0.0447707295605888	20.16907813689585	-3.476266630055881	3.4772106469738	2.636827659440807	-515.5398661069962	-85.85895057195326	-39.82220756125207	-4.368677681744857	-1.820159388967779	-0.9618119722392888	12.25412211449076	-1.984106938135366	3.207882752444418	-2.542496675133088	9.843500544509567	9.843500544508192	0.6962859059725548	-0.8224062727507396	2.181875104189214	-0.992252729135597	-1.052473313806426e-07	1.859192018511556e-07	2.813302809351505e-07	8.434845388859591e-08	-4.73055023267773e-07	-1.389719418494354e-07	-1.743962652672076e-08
0.03	-0.04083590933106281	0.06778731009566015	0.8954935483884322	0.2010654844308984	-0.3231883289880693	-0.4765355383628334	-0.1392017552933099	0.07460866083038442	0.07460866083038339	-0.1742423280935153	-0.1131003595046078	-0.06604620803138406	0.002991818479102795	-0.1280897551568004	-0.05533395468153933	-0.02855328866129705	0.3640101530167184	-0.0600177709067766	0.09894916520263934	-0.0839606288765745	0.293159846389619	0.2931598463896264	0.0191466298901595	-0.02145550368495958	0.06372230274719953	-0.03127168125681153	0.09405622491639985	-0.09615929637245885	-0.02676636216575094	-0.2185671542703629	0.1690032091049646	-0.005918321190026316	-0.04124357467984106	19.01022708785058	-3.660169920103208	3.562331347089618	2.702663139634709	-515.4326822780819	-85.65231113054416	-39.87103133753614	-4.015693781553347	-1.744738558548559	-0.9253973460187921	11.48659503101829	-1.89589370165612	3.185906807427261	-2.636022428720155	9.281602812657393	9.28160281265939	0.5926272454048759	-0.6250128385403744	2.026814609654852	-0.9825721153960726	-1.345536157060727e-07	2.079403149006686e-07	3.374824531147995e-07	1.132054796990082e-07	-6.458475568413373e-07	-1.747718614041278e-07	-2.105583392973998e-08
